# xmcd CD database file
#
# Track frame offsets:
#	150
#	16809
#	44018
#	57298
#	72177
#	99638
#	131156
#	163072
#
# Disc length: 2987 seconds
#
# Revision: 0
# Processed by: cddbd v1.5.2PL0 Copyright (c) Steve Scherf et al.
# Submitted via: CDex 2.13
#
DISCID=6e0ba908
DTITLE=Bluebird - Live at Missy Sippy
DYEAR=2018
DGENRE=Blues
TTITLE0=Louisiana
TTITLE1=Hush Hush
TTITLE2=Smiling Machine
TTITLE3=Dizzy
TTITLE4=Indian Headed Monkey
TTITLE5=Honey Bee
TTITLE6=St. James Infirmary
TTITLE7=Bad Cold
EXTD=YEAR: 2018
EXTT0=
EXTT1=
EXTT2=
EXTT3=
EXTT4=
EXTT5=
EXTT6=
EXTT7=
PLAYORDER=
